<?xml version="1.0" encoding="UTF-8" standalone="no"?>
<!-- Created with Inkscape (http://www.inkscape.org/) -->

<svg
   width="600"
   height="250.00002"
   viewBox="0 0 158.75 66.145837"
   version="1.1"
   id="svg1"
   inkscape:version="1.4.2 (1:1.4.2+202505120738+ebf0e940d0)"
   sodipodi:docname="webthings_gateway_docker_and_snap.svg"
   xmlns:inkscape="http://www.inkscape.org/namespaces/inkscape"
   xmlns:sodipodi="http://sodipodi.sourceforge.net/DTD/sodipodi-0.dtd"
   xmlns="http://www.w3.org/2000/svg"
   xmlns:svg="http://www.w3.org/2000/svg">
  <sodipodi:namedview
     id="namedview1"
     pagecolor="#ffffff"
     bordercolor="#666666"
     borderopacity="1.0"
     inkscape:showpageshadow="2"
     inkscape:pageopacity="0.0"
     inkscape:pagecheckerboard="0"
     inkscape:deskcolor="#d1d1d1"
     inkscape:document-units="px"
     inkscape:zoom="1.363005"
     inkscape:cx="327.95183"
     inkscape:cy="225.60445"
     inkscape:window-width="1280"
     inkscape:window-height="987"
     inkscape:window-x="0"
     inkscape:window-y="0"
     inkscape:window-maximized="1"
     inkscape:current-layer="text758-6-5-8-2" />
  <defs
     id="defs1">
    <clipPath
       id="clipPath65193-30-4-9-3-5-9-4-6-8-4-7-7"
       clipPathUnits="userSpaceOnUse">
      <path
         inkscape:connector-curvature="0"
         id="path65191-3-2-68-7-9-6-2-3-0-5-5-5"
         d="M 0,1366 H 1366 V 0 H 0 Z" />
    </clipPath>
  </defs>
  <g
     inkscape:label="Layer 1"
     inkscape:groupmode="layer"
     id="layer1"
     transform="translate(47.095752,-56.091671)">
    <rect
       style="font-variation-settings:'wght' 400;fill:none;fill-opacity:1;stroke-width:0"
       id="rect8"
       width="158.75"
       height="66.145836"
       x="-47.095753"
       y="56.091671" />
    <g
       id="g22-3-4-2-6"
       transform="matrix(1.0176282,0,0,1.0176282,50.9617,82.594358)">
      <path
         d="m 18.105,8.876 6.173,2.667 -6.173,6 z M 6.318,29 17.21,18.413 13.887,15.2 Z M 2,3 17.582,18.052 V 8.474 Z"
         style="fill:#82bfa1;fill-rule:evenodd"
         id="path1-5-8-6-9-2" />
      <path
         d="M 27.436,8.473 H 18.464 L 30,13.457 Z"
         style="fill:#fa6340;fill-rule:evenodd"
         id="path2-6-7-5-2-9" />
    </g>
    <g
       id="text713-3-35-4-3"
       style="font-size:2.32332px;line-height:0%;letter-spacing:0px;word-spacing:0px;stroke-width:0.19361px"
       aria-label="WebThings Gateway&#10;Snap">
      <path
         style="font-weight:600;font-size:6.35px;line-height:1.25;font-family:'Zilla Slab';-inkscape-font-specification:'Zilla Slab Semi-Bold';text-align:center;text-anchor:middle"
         d="m 45.02526,67.06815 h -0.33655 l -1.12395,3.52425 h -0.5207 l -1.00965,-2.9083 h -0.03175 l -0.9779,2.9083 h -0.52705 l -1.1938,-3.52425 h -0.3556 V 66.4649 h 1.56845 v 0.60325 h -0.4572 l 0.7112,2.3622 h 0.03175 l 0.81915,-2.3622 H 41.25971 V 66.4649 h 1.5621 v 0.60325 h -0.33655 l 0.81915,2.39395 h 0.03175 l 0.6477,-2.39395 h -0.508 V 66.4649 h 1.5494 z m 2.57173,2.6543 q -0.0381,0.37465 -0.3683,0.65405 -0.3302,0.2794 -0.90805,0.2794 -0.6223,0 -1.02235,-0.36195 -0.40005,-0.3683 -0.40005,-1.0795 0,-0.65405 0.36195,-1.0922 0.3683,-0.43815 1.02235,-0.43815 0.59055,0 0.93345,0.3556 0.34925,0.34925 0.3556,0.889 0,0.1778 -0.0381,0.381 h -1.92405 q 0.05715,0.8001 0.762,0.8001 0.3302,0 0.4699,-0.15875 0.14605,-0.15875 0.1905,-0.33655 z m -0.7239,-0.83185 q 0.0254,-0.254 -0.12065,-0.47625 -0.1397,-0.2286 -0.47625,-0.2286 -0.3048,0 -0.46355,0.2032 -0.15875,0.2032 -0.19685,0.50165 z m 4.171941,0.20955 q 0,0.60325 -0.3175,1.0795 -0.3175,0.47625 -0.9779,0.47625 -0.6731,0 -0.94615,-0.508 -0.0127,0.0762 -0.03175,0.22225 -0.01905,0.14605 -0.03175,0.22225 h -0.6731 q 0.0381,-0.20955 0.06985,-0.42545 0.03175,-0.22225 0.03175,-0.4318 V 66.7443 h -0.42545 v -0.5207 h 1.09855 v 2.0828 q 0.127,-0.254 0.3556,-0.43815 0.23495,-0.18415 0.62865,-0.18415 0.53975,0 0.8763,0.37465 0.3429,0.3683 0.3429,1.0414 z m -0.70485,0.05715 q 0,-0.45085 -0.2032,-0.6858 -0.2032,-0.2413 -0.5207,-0.2413 -0.36195,0 -0.56515,0.2667 -0.2032,0.2667 -0.20955,0.57785 v 0.2032 q 0,0.34925 0.2032,0.5969 0.20955,0.2413 0.5461,0.2413 0.3556,0 0.55245,-0.26035 0.19685,-0.26035 0.19685,-0.6985 z m 4.521188,-1.3462 -0.6096,0.0508 -0.127,-0.79375 h -0.80645 v 2.921 h 0.69215 v 0.60325 h -2.06375 v -0.60325 h 0.66675 v -2.921 h -0.8128 l -0.127,0.79375 -0.60325,-0.0508 0.127,-1.3462 h 3.53695 z m 3.70205,2.7813 h -1.53035 v -0.5207 h 0.42545 v -1.1176 q 0,-0.4064 -0.1524,-0.5715 -0.1524,-0.17145 -0.41275,-0.17145 -0.31115,0 -0.4953,0.2032 -0.18415,0.2032 -0.19685,0.4953 v 1.16205 h 0.4191 v 0.5207 h -1.524 v -0.5207 h 0.42545 v -3.3274 h -0.42545 v -0.5207 h 1.1049 v 1.98755 q 0.2921,-0.52705 0.94615,-0.52705 0.41275,0 0.6985,0.24765 0.2921,0.24765 0.2921,0.7747 v 1.36525 h 0.42545 z m 0.66675,-3.4417 v -0.7493 h 0.69215 v 0.7493 z m 1.13665,3.4417 h -1.524 v -0.5207 h 0.42545 v -1.8034 h -0.45085 v -0.52705 h 1.12395 v 2.33045 h 0.42545 z m 3.771898,0 h -1.524 v -0.5207 h 0.4191 v -1.1176 q 0,-0.4064 -0.14605,-0.5715 -0.14605,-0.17145 -0.4064,-0.17145 -0.32385,0 -0.51435,0.20955 -0.18415,0.20955 -0.1905,0.51435 v 1.13665 h 0.42545 v 0.5207 h -1.53035 v -0.5207 h 0.42545 v -1.8034 h -0.4445 v -0.52705 h 1.12395 v 0.46355 q 0.29845,-0.5207 0.94615,-0.5207 0.4064,0 0.6985,0.24765 0.2921,0.24765 0.2921,0.7747 v 1.36525 h 0.42545 z m 3.53694,-2.3241 h -0.41275 v 2.21615 q 0,0.67945 -0.381,1.09855 -0.37465,0.4191 -1.12395,0.4191 -0.4445,0 -0.83185,-0.1905 -0.38735,-0.1905 -0.5461,-0.65405 l 0.52705,-0.28575 q 0.2667,0.5842 0.8636,0.5842 0.3556,0 0.5842,-0.254 0.2286,-0.254 0.2286,-0.7239 v -0.42545 q -0.12065,0.2286 -0.34925,0.3937 -0.22225,0.15875 -0.61595,0.15875 -0.50165,0 -0.86995,-0.34925 -0.36195,-0.3556 -0.36195,-1.0287 0,-0.6096 0.32385,-1.07315 0.3302,-0.4699 0.9525,-0.4699 0.6477,0 0.92075,0.50165 v -0.4445 h 1.0922 z m -1.0922,0.9652 v -0.2286 q 0,-0.3556 -0.2032,-0.56515 -0.2032,-0.20955 -0.508,-0.20955 -0.3556,0 -0.5461,0.26035 -0.1905,0.254 -0.1905,0.69215 0,0.45085 0.1905,0.66675 0.1905,0.20955 0.4826,0.20955 0.36195,0 0.56515,-0.254 0.20955,-0.254 0.20955,-0.5715 z m 3.854448,0.508 q 0,0.4445 -0.3683,0.67945 -0.36195,0.23495 -0.9271,0.23495 -0.3048,0 -0.61595,-0.06985 -0.3048,-0.06985 -0.55245,-0.20955 l 0.1016,-0.7366 0.5334,0.0508 -0.0063,0.3683 q 0.12065,0.0508 0.254,0.06985 0.1397,0.01905 0.24765,0.01905 0.26035,0 0.45085,-0.0889 0.19685,-0.09525 0.19685,-0.2794 0,-0.1778 -0.1778,-0.254 -0.17145,-0.0762 -0.4318,-0.1143 -0.26035,-0.04445 -0.5207,-0.1143 -0.26035,-0.0762 -0.43815,-0.2413 -0.17145,-0.17145 -0.17145,-0.508 0,-0.4953 0.37465,-0.67945 0.381,-0.18415 0.8001,-0.18415 0.55245,0 1.0414,0.26035 l 0.06985,0.70485 -0.5334,0.0635 -0.05715,-0.42545 q -0.24765,-0.09525 -0.50165,-0.09525 -0.19685,0 -0.33655,0.08255 -0.13335,0.0762 -0.13335,0.24765 0,0.1778 0.17145,0.24765 0.17145,0.06985 0.42545,0.1143 0.254,0.0381 0.508,0.1143 0.254,0.06985 0.42545,0.2413 0.17145,0.1651 0.17145,0.50165 z"
         id="path5" />
      <path
         style="font-size:6.35px;line-height:1.25;font-family:'Zilla Slab';-inkscape-font-specification:'Zilla Slab Bold';text-align:center;text-anchor:middle"
         d="m 76.032232,68.8779 h -0.32385 v 1.7145 h -0.3556 l -0.05715,-0.5715 q -0.18415,0.27305 -0.52705,0.4572 -0.33655,0.1778 -0.79375,0.1778 -0.8509,0 -1.37795,-0.6096 -0.52705,-0.6096 -0.52705,-1.4986 0,-0.5969 0.254,-1.0795 0.26035,-0.48895 0.7112,-0.7747 0.4572,-0.2921 1.04775,-0.2921 0.4953,0 0.8636,0.1397 0.37465,0.13335 0.6096,0.3429 l 0.1143,0.7747 -0.3937,0.04445 -0.127,-0.5842 q -0.17145,-0.1143 -0.4191,-0.2032 -0.2413,-0.09525 -0.6223,-0.09525 -0.69215,0 -1.1176,0.47625 -0.42545,0.47625 -0.42545,1.2319 0,0.76835 0.4064,1.23825 0.4064,0.4699 1.08585,0.4699 0.56515,0 0.8763,-0.3048 0.31115,-0.31115 0.31115,-0.6858 v -0.3683 h -0.98425 v -0.41275 h 1.77165 z m 0.685802,-0.89535 q 0.22225,-0.14605 0.4699,-0.20955 0.24765,-0.0635 0.52705,-0.0635 1.00965,0 1.00965,0.94615 v 1.3462 q 0,0.3048 0.2413,0.3048 0.10795,0 0.1905,-0.0381 l 0.0063,0.2921 q -0.17145,0.09525 -0.3683,0.09525 -0.50165,0 -0.51435,-0.5715 v -0.0127 q -0.13335,0.2286 -0.381,0.4064 -0.2413,0.1778 -0.5842,0.1778 -0.2794,0 -0.5715,-0.17145 -0.28575,-0.17145 -0.28575,-0.6223 0,-0.5334 0.4191,-0.6985 0.42545,-0.17145 0.9017,-0.17145 0.127,0 0.254,0.0063 0.13335,0.0064 0.24765,0.01905 v -0.254 q 0,-0.3048 -0.13335,-0.4953 -0.127,-0.1905 -0.508,-0.1905 -0.31115,0 -0.5461,0.1143 l -0.10795,0.48895 -0.3683,-0.04445 z m 1.5621,1.5494 v -0.2159 q -0.12065,-0.0063 -0.254,-0.01905 -0.13335,-0.0127 -0.27305,-0.0127 -0.3175,0 -0.57785,0.1016 -0.254,0.09525 -0.254,0.42545 0,0.27305 0.17145,0.37465 0.17145,0.1016 0.3556,0.1016 0.2921,0 0.5461,-0.2032 0.26035,-0.2032 0.28575,-0.55245 z m 3.314697,0.29845 q -0.1143,0.8255 -0.89535,0.8255 -0.42545,0 -0.65405,-0.2413 -0.22225,-0.2413 -0.22225,-0.65405 v -1.6383 h -0.4572 v -0.3556 h 0.4572 V 66.8586 h 0.4445 v 0.90805 h 1.1049 v 0.3556 h -1.1049 v 1.58115 q 0,0.254 0.10795,0.41275 0.1143,0.1524 0.3683,0.1524 0.1651,0 0.3048,-0.1016 0.14605,-0.1016 0.20955,-0.4445 z m 2.793989,-0.0508 q -0.05715,0.36195 -0.36195,0.6223 -0.3048,0.254 -0.8255,0.254 -0.5969,0 -0.9652,-0.37465 -0.3683,-0.37465 -0.3683,-1.06045 0,-0.6604 0.34925,-1.08585 0.34925,-0.42545 0.94615,-0.42545 0.5842,0 0.889,0.3683 0.3048,0.3683 0.31115,0.86995 0,0.1651 -0.0381,0.33655 h -1.98755 q 0.0381,0.9906 0.89535,0.9906 0.33655,0 0.52705,-0.15875 0.1905,-0.15875 0.254,-0.4191 z m -0.4953,-0.8255 q 0.03175,-0.3175 -0.1524,-0.5969 -0.1778,-0.2794 -0.59055,-0.2794 -0.3937,0 -0.57785,0.26035 -0.18415,0.26035 -0.2286,0.61595 z m 5.460991,-0.8255 h -0.32385 l -0.83185,2.4638 h -0.3429 l -0.8636,-2.159 h -0.03175 l -0.84455,2.159 h -0.3302 l -0.8636,-2.4638 h -0.31115 v -0.36195 h 1.3335 v 0.36195 h -0.53975 l 0.59055,1.78435 h 0.03175 l 0.8382,-2.1463 h 0.29845 l 0.88265,2.1463 h 0.03175 l 0.5207,-1.78435 h -0.51435 v -0.36195 h 1.27 z m 0.577844,-0.14605 q 0.22225,-0.14605 0.4699,-0.20955 0.24765,-0.0635 0.52705,-0.0635 1.00965,0 1.00965,0.94615 v 1.3462 q 0,0.3048 0.2413,0.3048 0.10795,0 0.1905,-0.0381 l 0.0063,0.2921 q -0.17145,0.09525 -0.3683,0.09525 -0.50165,0 -0.51435,-0.5715 v -0.0127 q -0.13335,0.2286 -0.381,0.4064 -0.2413,0.1778 -0.5842,0.1778 -0.2794,0 -0.5715,-0.17145 -0.28575,-0.17145 -0.28575,-0.6223 0,-0.5334 0.4191,-0.6985 0.42545,-0.17145 0.9017,-0.17145 0.127,0 0.254,0.0063 0.13335,0.0064 0.24765,0.01905 v -0.254 q 0,-0.3048 -0.13335,-0.4953 -0.127,-0.1905 -0.508,-0.1905 -0.31115,0 -0.5461,0.1143 l -0.10795,0.48895 -0.3683,-0.04445 z m 1.5621,1.5494 v -0.2159 q -0.12065,-0.0063 -0.254,-0.01905 -0.13335,-0.0127 -0.27305,-0.0127 -0.3175,0 -0.57785,0.1016 -0.254,0.09525 -0.254,0.42545 0,0.27305 0.17145,0.37465 0.17145,0.1016 0.3556,0.1016 0.2921,0 0.5461,-0.2032 0.26035,-0.2032 0.28575,-0.55245 z M 95.53939,68.1286 h -0.33655 l -0.99695,2.4638 -0.380999,0.9906 h 0.482599 v 0.36195 H 92.872391 V 71.583 h 0.52705 l 0.3683,-0.99695 -1.0287,-2.45745 h -0.33655 v -0.36195 h 1.3081 v 0.36195 h -0.4953 l 0.79375,1.89865 h 0.0381 L 94.75199,68.1286 h -0.4572 v -0.36195 h 1.2446 z"
         id="path6" />
      <path
         style="font-size:4.23334px;line-height:1.25;font-family:'Open Sans';-inkscape-font-specification:'Open Sans Bold';text-align:center;text-anchor:middle"
         d="m 64.451772,75.68556 q 0,0.398942 -0.289388,0.622185 -0.289389,0.223242 -0.785483,0.223242 -0.537436,0 -0.826824,-0.138493 v -0.338997 q 0.186035,0.07855 0.405144,0.124023 0.219108,0.04547 0.434082,0.04547 0.351401,0 0.529168,-0.132291 0.177767,-0.134359 0.177767,-0.372071 0,-0.157097 -0.06408,-0.256316 -0.06201,-0.101286 -0.21084,-0.186035 -0.146761,-0.08475 -0.448552,-0.192237 -0.421681,-0.150895 -0.603582,-0.357601 -0.179834,-0.206706 -0.179834,-0.539503 0,-0.349333 0.262517,-0.556039 0.262516,-0.206706 0.694532,-0.206706 0.450619,0 0.828891,0.165364 l -0.109554,0.305925 q -0.374138,-0.157096 -0.727605,-0.157096 -0.279054,0 -0.43615,0.119889 -0.157097,0.11989 -0.157097,0.332797 0,0.157097 0.05788,0.258383 0.05788,0.09922 0.194304,0.183968 0.138493,0.08268 0.42168,0.183968 0.475424,0.169499 0.653191,0.363803 0.179834,0.194304 0.179834,0.504363 z m 2.11667,0.804086 V 75.0241 q 0,-0.276986 -0.12609,-0.413412 -0.126091,-0.136426 -0.394809,-0.136426 -0.355534,0 -0.520899,0.192237 -0.165365,0.192237 -0.165365,0.634588 v 1.188559 H 65.018147 V 74.224148 H 65.2972 l 0.05581,0.310059 h 0.01654 q 0.10542,-0.167432 0.29559,-0.258382 0.190169,-0.09302 0.423747,-0.09302 0.409278,0 0.615984,0.198438 0.206706,0.19637 0.206706,0.630453 v 1.477948 z m 2.441199,0 -0.06821,-0.322461 h -0.01654 q -0.169499,0.212907 -0.338998,0.289388 -0.167432,0.07441 -0.419613,0.07441 -0.336931,0 -0.529168,-0.173633 -0.190169,-0.173633 -0.190169,-0.494027 0,-0.686264 1.097609,-0.719337 l 0.384473,-0.0124 v -0.140561 q 0,-0.26665 -0.115755,-0.392741 -0.113688,-0.128158 -0.36587,-0.128158 -0.283187,0 -0.640789,0.173633 l -0.10542,-0.262516 q 0.167432,-0.09095 0.36587,-0.142628 0.200505,-0.05168 0.40101,-0.05168 0.405144,0 0.599447,0.179834 0.196371,0.179834 0.196371,0.57671 V 76.48964 Z M 68.234493,76.2478 q 0.320394,0 0.502296,-0.1757 0.183968,-0.1757 0.183968,-0.49196 v -0.204639 l -0.343132,0.01447 q -0.409278,0.01447 -0.591179,0.128158 -0.179835,0.111621 -0.179835,0.349333 0,0.186036 0.111622,0.283187 0.113688,0.09715 0.31626,0.09715 z m 2.790531,0.283187 q -0.221175,0 -0.405144,-0.08061 -0.181901,-0.08268 -0.305925,-0.252181 h -0.0248 q 0.0248,0.198438 0.0248,0.376205 v 0.932244 h -0.343132 v -3.282492 h 0.279054 l 0.04754,0.310059 h 0.01654 q 0.132292,-0.186035 0.307992,-0.268718 0.175701,-0.08268 0.403077,-0.08268 0.450619,0 0.694533,0.307992 0.24598,0.307992 0.24598,0.864031 0,0.558106 -0.250115,0.868165 -0.248047,0.307992 -0.690398,0.307992 z m -0.04961,-2.056725 q -0.347266,0 -0.502296,0.192237 -0.155029,0.192237 -0.159164,0.61185 v 0.07648 q 0,0.477491 0.159164,0.684197 0.159164,0.204639 0.510564,0.204639 0.293523,0 0.458887,-0.237712 0.167432,-0.237712 0.167432,-0.655258 0,-0.423747 -0.167432,-0.649057 -0.165364,-0.227377 -0.467155,-0.227376 z"
         id="path7" />
    </g>
    <g
       transform="matrix(0.02918738,0,0,-0.02918738,-22.5949,118.81138)"
       inkscape:label="docker"
       id="g1156-4-6-9-1"
       style="stroke-width:1.04779">
      <path
         inkscape:connector-curvature="0"
         id="path1144-0-6-3-2"
         style="fill:#009ddb;fill-opacity:1;fill-rule:nonzero;stroke:none;stroke-width:1.04779"
         d="M 729.715,1008.187 H 601.653 v 128.062 h 128.062 z" />
      <path
         inkscape:connector-curvature="0"
         id="path1145-7-8-6-7"
         style="fill:#009ddb;fill-opacity:1;fill-rule:nonzero;stroke:none;stroke-width:1.04779"
         d="M 729.715,847.194 H 601.653 v 128.062 h 128.062 z" />
      <path
         inkscape:connector-curvature="0"
         id="path1146-5-1-0-0"
         style="fill:#009ddb;fill-opacity:1;fill-rule:nonzero;stroke:none;stroke-width:1.04779"
         d="M 729.715,686.202 H 601.653 v 128.062 h 128.062 z" />
      <path
         inkscape:connector-curvature="0"
         id="path1147-0-6-6-9"
         style="fill:#009ddb;fill-opacity:1;fill-rule:nonzero;stroke:none;stroke-width:1.04779"
         d="M 574.21,847.194 H 446.148 V 975.256 H 574.21 Z" />
      <path
         inkscape:connector-curvature="0"
         id="path1148-2-8-2-3"
         style="fill:#009ddb;fill-opacity:1;fill-rule:nonzero;stroke:none;stroke-width:1.04779"
         d="M 574.21,686.202 H 446.148 V 814.264 H 574.21 Z" />
      <path
         inkscape:connector-curvature="0"
         id="path1149-5-2-6-6"
         style="fill:#009ddb;fill-opacity:1;fill-rule:nonzero;stroke:none;stroke-width:1.04779"
         d="M 418.706,847.194 H 290.644 v 128.062 h 128.062 z" />
      <path
         inkscape:connector-curvature="0"
         id="path1150-4-5-1-0"
         style="fill:#009ddb;fill-opacity:1;fill-rule:nonzero;stroke:none;stroke-width:1.04779"
         d="M 418.706,686.202 H 290.644 v 128.062 h 128.062 z" />
      <path
         inkscape:connector-curvature="0"
         id="path1151-2-3-8-6"
         style="fill:#009ddb;fill-opacity:1;fill-rule:nonzero;stroke:none;stroke-width:1.04779"
         d="M 265.031,686.202 H 136.968 v 128.062 h 128.063 z" />
      <path
         inkscape:connector-curvature="0"
         id="path1152-1-7-7-2"
         style="fill:#009ddb;fill-opacity:1;fill-rule:nonzero;stroke:none;stroke-width:1.04779"
         d="M 885.22,686.202 H 757.157 V 814.264 H 885.22 Z" />
      <g
         id="g1155-5-3-9-6"
         style="stroke-width:1.04779">
        <g
           clip-path="url(#clipPath65193-30-4-9-3-5-9-4-6-8-4-7-7)"
           id="g1154-1-5-2-1"
           style="stroke-width:1.04779">
          <g
             transform="translate(483.3027,229.75)"
             id="g1153-6-5-0-8"
             style="stroke-width:1.04779">
            <path
               inkscape:connector-curvature="0"
               id="path1153-0-1-2-7"
               style="fill:#009ddb;fill-opacity:1;fill-rule:nonzero;stroke:none;stroke-width:1.04779"
               d="m 0,0 c -471.653,0 -416.769,415.289 -416.769,415.289 h 787.426 c 132.795,0 176.702,42.077 176.702,42.077 0,0 -75.008,96.962 12.806,214.048 98.791,-56.714 95.133,-140.869 95.133,-140.869 0,0 100.62,32.93 162.822,-23.783 C 783.36,393.335 629.685,400.653 629.685,400.653 629.685,400.653 486.986,0 0,0" />
          </g>
        </g>
      </g>
    </g>
    <g
       id="text758-6-5-8-2"
       style="font-size:2.32332px;line-height:0%;letter-spacing:0px;word-spacing:0px;stroke-width:0.19361px"
       aria-label="WebThings Gateway&#10;Docker">
      <path
         style="font-weight:600;font-size:6.35px;line-height:1.25;font-family:'Zilla Slab';-inkscape-font-specification:'Zilla Slab Semi-Bold';text-align:center;text-anchor:middle"
         d="m -24.903951,67.06815 h -0.33655 l -1.12395,3.52425 h -0.5207 l -1.00965,-2.9083 h -0.03175 l -0.9779,2.9083 h -0.52705 l -1.1938,-3.52425 h -0.3556 V 66.4649 h 1.56845 v 0.60325 h -0.4572 l 0.7112,2.3622 h 0.03175 l 0.81915,-2.3622 h -0.36195 V 66.4649 h 1.5621 v 0.60325 h -0.33655 l 0.81915,2.39395 h 0.03175 l 0.6477,-2.39395 h -0.508 V 66.4649 h 1.5494 z m 2.571729,2.6543 q -0.0381,0.37465 -0.3683,0.65405 -0.3302,0.2794 -0.90805,0.2794 -0.6223,0 -1.02235,-0.36195 -0.40005,-0.3683 -0.40005,-1.0795 0,-0.65405 0.36195,-1.0922 0.3683,-0.43815 1.02235,-0.43815 0.59055,0 0.93345,0.3556 0.34925,0.34925 0.3556,0.889 0,0.1778 -0.0381,0.381 h -1.92405 q 0.05715,0.8001 0.762,0.8001 0.3302,0 0.4699,-0.15875 0.14605,-0.15875 0.1905,-0.33655 z m -0.7239,-0.83185 q 0.0254,-0.254 -0.12065,-0.47625 -0.1397,-0.2286 -0.47625,-0.2286 -0.3048,0 -0.46355,0.2032 -0.15875,0.2032 -0.19685,0.50165 z m 4.171942,0.20955 q 0,0.60325 -0.3175,1.0795 -0.3175,0.47625 -0.9779,0.47625 -0.6731,0 -0.94615,-0.508 -0.0127,0.0762 -0.03175,0.22225 -0.01905,0.14605 -0.03175,0.22225 h -0.6731 q 0.0381,-0.20955 0.06985,-0.42545 0.03175,-0.22225 0.03175,-0.4318 V 66.7443 h -0.42545 v -0.5207 h 1.09855 v 2.0828 q 0.127,-0.254 0.3556,-0.43815 0.23495,-0.18415 0.62865,-0.18415 0.53975,0 0.8763,0.37465 0.3429,0.3683 0.3429,1.0414 z m -0.70485,0.05715 q 0,-0.45085 -0.2032,-0.6858 -0.2032,-0.2413 -0.5207,-0.2413 -0.36195,0 -0.56515,0.2667 -0.2032,0.2667 -0.20955,0.57785 v 0.2032 q 0,0.34925 0.2032,0.5969 0.20955,0.2413 0.5461,0.2413 0.3556,0 0.55245,-0.26035 0.19685,-0.26035 0.19685,-0.6985 z m 4.521188,-1.3462 -0.6096,0.0508 -0.127,-0.79375 h -0.80645 v 2.921 h 0.69215 v 0.60325 h -2.06375 v -0.60325 h 0.66675 v -2.921 h -0.8128 l -0.127,0.79375 -0.60325,-0.0508 0.127,-1.3462 h 3.53695 z m 3.702049,2.7813 h -1.53035 v -0.5207 h 0.42545 v -1.1176 q 0,-0.4064 -0.1524,-0.5715 -0.1524,-0.17145 -0.41275,-0.17145 -0.31115,0 -0.4953,0.2032 -0.18415,0.2032 -0.19685,0.4953 v 1.16205 h 0.4191 v 0.5207 h -1.524 v -0.5207 h 0.42545 v -3.3274 h -0.42545 v -0.5207 h 1.1049 v 1.98755 q 0.2921,-0.52705 0.94615,-0.52705 0.41275,0 0.6985,0.24765 0.2921,0.24765 0.2921,0.7747 v 1.36525 h 0.42545 z m 0.66675,-3.4417 v -0.7493 h 0.69215 v 0.7493 z m 1.1366502,3.4417 h -1.5240002 v -0.5207 h 0.42545 v -1.8034 h -0.45085 v -0.52705 h 1.1239502 v 2.33045 h 0.42545 z m 3.7718984,0 h -1.524 v -0.5207 h 0.4191 v -1.1176 q 0,-0.4064 -0.14605,-0.5715 -0.14605,-0.17145 -0.4064,-0.17145 -0.32385,0 -0.51435,0.20955 -0.18415,0.20955 -0.1905,0.51435 v 1.13665 h 0.42545 v 0.5207 h -1.5303499 v -0.5207 h 0.42545 v -1.8034 h -0.4445 v -0.52705 h 1.1239499 v 0.46355 q 0.29845,-0.5207 0.94615,-0.5207 0.4064,0 0.6985,0.24765 0.2921,0.24765 0.2921,0.7747 v 1.36525 h 0.42545 z m 3.5369403,-2.3241 h -0.41275 v 2.21615 q 0,0.67945 -0.381,1.09855 -0.3746499,0.4191 -1.1239499,0.4191 -0.4445,0 -0.83185,-0.1905 -0.38735,-0.1905 -0.5461,-0.65405 l 0.52705,-0.28575 q 0.2667,0.5842 0.8636,0.5842 0.3556,0 0.5842,-0.254 0.2286,-0.254 0.2286,-0.7239 v -0.42545 q -0.12065,0.2286 -0.34925,0.3937 -0.22225,0.15875 -0.61595,0.15875 -0.50165,0 -0.86995,-0.34925 -0.36195,-0.3556 -0.36195,-1.0287 0,-0.6096 0.32385,-1.07315 0.3302,-0.4699 0.9525,-0.4699 0.6477,0 0.92075,0.50165 v -0.4445 h 1.0921999 z m -1.0921999,0.9652 v -0.2286 q 0,-0.3556 -0.2032,-0.56515 -0.2032,-0.20955 -0.508,-0.20955 -0.3556,0 -0.5461,0.26035 -0.1905,0.254 -0.1905,0.69215 0,0.45085 0.1905,0.66675 0.1905,0.20955 0.4826,0.20955 0.36195,0 0.56515,-0.254 0.20955,-0.254 0.20955,-0.5715 z"
         id="path1" />
      <path
         style="font-weight:bold;font-size:6.35px;line-height:1.25;font-family:'Zilla Slab';-inkscape-font-specification:'Zilla Slab Bold';text-align:center;text-anchor:middle"
         d="m 0.59759379,69.7161 q 0,0.47625 -0.38099999,0.7112 -0.37465,0.2286 -0.97789999,0.2286 -0.31115001,0 -0.62865001,-0.0635 -0.31115,-0.06985 -0.5969,-0.2159 l 0.1143,-0.8001 0.635,0.06985 v 0.3556 q 0.1143,0.0381 0.24130002,0.0508 0.12699999,0.0063 0.19049999,0.0063 0.23495,0 0.4064,-0.0762 0.17145,-0.0762 0.17145,-0.2286 0,-0.18415 -0.26035,-0.2413 -0.26035,-0.05715 -0.60325001,-0.1143 -0.3429,-0.05715 -0.60325,-0.23495 -0.26035,-0.1778 -0.26035,-0.60325 0,-0.52705 0.4064,-0.70485 0.41275,-0.18415 0.85090001,-0.18415 0.57149999,0 1.07314999,0.26035 l 0.06985,0.73025 -0.635,0.06985 -0.0508,-0.40005 q -0.20955,-0.06985 -0.45085,-0.06985 -0.15875,0 -0.27304999,0.06985 -0.10795001,0.0635 -0.10795001,0.2032 0,0.18415 0.24765,0.24765 0.254,0.05715 0.5842,0.1143 0.33654999,0.05715 0.58419999,0.23495 0.25399999,0.17145 0.25399999,0.5842 z"
         id="path2" />
      <path
         style="font-size:6.35px;line-height:1.25;font-family:'Zilla Slab';-inkscape-font-specification:'Zilla Slab Bold';text-align:center;text-anchor:middle"
         d="m 6.1538289,68.8779 h -0.32385 v 1.7145 h -0.3556 l -0.05715,-0.5715 q -0.18415,0.27305 -0.52705,0.4572 -0.33655,0.1778 -0.79375,0.1778 -0.8509,0 -1.37795,-0.6096 -0.52705,-0.6096 -0.52705,-1.4986 0,-0.5969 0.254,-1.0795 0.26035,-0.48895 0.7112,-0.7747 0.4572,-0.2921 1.04775,-0.2921 0.4953,0 0.8636,0.1397 0.37465,0.13335 0.6096,0.3429 l 0.1143,0.7747 -0.3937,0.04445 -0.127,-0.5842 q -0.17145,-0.1143 -0.4191,-0.2032 -0.2413,-0.09525 -0.6223,-0.09525 -0.69215,0 -1.1176,0.47625 -0.42545,0.47625 -0.42545,1.2319 0,0.76835 0.4064,1.23825 0.4064,0.4699 1.08585,0.4699 0.56515,0 0.8763,-0.3048 0.31115,-0.31115 0.31115,-0.6858 v -0.3683 h -0.98425 v -0.41275 h 1.77165 z m 0.6858018,-0.89535 q 0.22225,-0.14605 0.4698999,-0.20955 0.24765,-0.0635 0.52705,-0.0635 1.00965,0 1.00965,0.94615 v 1.3462 q 0,0.3048 0.2413,0.3048 0.10795,0 0.1905,-0.0381 l 0.00635,0.2921 q -0.17145,0.09525 -0.3683,0.09525 -0.50165,0 -0.51435,-0.5715 v -0.0127 q -0.13335,0.2286 -0.381,0.4064 -0.2413,0.1778 -0.5842,0.1778 -0.2793999,0 -0.5714999,-0.17145 -0.28575,-0.17145 -0.28575,-0.6223 0,-0.5334 0.4191,-0.6985 0.4254499,-0.17145 0.9016999,-0.17145 0.127,0 0.254,0.0063 0.13335,0.0064 0.24765,0.01905 v -0.254 q 0,-0.3048 -0.13335,-0.4953 -0.127,-0.1905 -0.508,-0.1905 -0.31115,0 -0.5461,0.1143 l -0.1079499,0.48895 -0.3683,-0.04445 z m 1.5620999,1.5494 v -0.2159 q -0.12065,-0.0063 -0.254,-0.01905 -0.13335,-0.0127 -0.27305,-0.0127 -0.3175,0 -0.57785,0.1016 -0.2539999,0.09525 -0.2539999,0.42545 0,0.27305 0.1714499,0.37465 0.17145,0.1016 0.3556,0.1016 0.2921,0 0.5461,-0.2032 0.26035,-0.2032 0.28575,-0.55245 z m 3.3146974,0.29845 q -0.1143,0.8255 -0.89535,0.8255 -0.42545,0 -0.65405,-0.2413 -0.2222502,-0.2413 -0.2222502,-0.65405 v -1.6383 h -0.4572 v -0.3556 h 0.4572 V 66.8586 h 0.4445002 v 0.90805 h 1.1049 v 0.3556 h -1.1049 v 1.58115 q 0,0.254 0.10795,0.41275 0.1143,0.1524 0.3683,0.1524 0.1651,0 0.3048,-0.1016 0.14605,-0.1016 0.20955,-0.4445 z m 2.793992,-0.0508 q -0.05715,0.36195 -0.36195,0.6223 -0.3048,0.254 -0.8255,0.254 -0.5969,0 -0.9652,-0.37465 -0.3683,-0.37465 -0.3683,-1.06045 0,-0.6604 0.34925,-1.08585 0.34925,-0.42545 0.94615,-0.42545 0.5842,0 0.889,0.3683 0.3048,0.3683 0.31115,0.86995 0,0.1651 -0.0381,0.33655 h -1.98755 q 0.0381,0.9906 0.89535,0.9906 0.33655,0 0.52705,-0.15875 0.1905,-0.15875 0.254,-0.4191 z m -0.4953,-0.8255 q 0.03175,-0.3175 -0.1524,-0.5969 -0.1778,-0.2794 -0.59055,-0.2794 -0.3937,0 -0.57785,0.26035 -0.18415,0.26035 -0.2286,0.61595 z m 5.460988,-0.8255 h -0.32385 l -0.83185,2.4638 h -0.3429 l -0.8636,-2.159 h -0.03175 l -0.84455,2.159 h -0.3302 l -0.8636,-2.4638 h -0.31115 v -0.36195 h 1.3335 v 0.36195 h -0.53975 l 0.59055,1.78435 h 0.03175 l 0.8382,-2.1463 h 0.29845 l 0.88265,2.1463 h 0.03175 l 0.5207,-1.78435 h -0.51435 v -0.36195 h 1.27 z m 0.577844,-0.14605 q 0.22225,-0.14605 0.4699,-0.20955 0.24765,-0.0635 0.52705,-0.0635 1.00965,0 1.00965,0.94615 v 1.3462 q 0,0.3048 0.2413,0.3048 0.10795,0 0.1905,-0.0381 l 0.0064,0.2921 q -0.17145,0.09525 -0.3683,0.09525 -0.50165,0 -0.51435,-0.5715 v -0.0127 q -0.13335,0.2286 -0.381,0.4064 -0.2413,0.1778 -0.5842,0.1778 -0.2794,0 -0.5715,-0.17145 -0.28575,-0.17145 -0.28575,-0.6223 0,-0.5334 0.4191,-0.6985 0.42545,-0.17145 0.9017,-0.17145 0.127,0 0.254,0.0063 0.13335,0.0064 0.24765,0.01905 v -0.254 q 0,-0.3048 -0.13335,-0.4953 -0.127,-0.1905 -0.508,-0.1905 -0.31115,0 -0.5461,0.1143 l -0.10795,0.48895 -0.3683,-0.04445 z m 1.5621,1.5494 v -0.2159 q -0.12065,-0.0063 -0.254,-0.01905 -0.13335,-0.0127 -0.27305,-0.0127 -0.3175,0 -0.57785,0.1016 -0.254,0.09525 -0.254,0.42545 0,0.27305 0.17145,0.37465 0.17145,0.1016 0.3556,0.1016 0.2921,0 0.5461,-0.2032 0.26035,-0.2032 0.28575,-0.55245 z m 4.044935,-1.40335 h -0.33655 l -0.99695,2.4638 -0.381,0.9906 h 0.4826 v 0.36195 h -1.4351 V 71.583 h 0.52705 l 0.3683,-0.99695 -1.0287,-2.45745 h -0.33655 v -0.36195 h 1.3081 v 0.36195 h -0.4953 l 0.79375,1.89865 h 0.0381 l 0.70485,-1.89865 h -0.4572 v -0.36195 h 1.2446 z"
         id="path3" />
      <path
         style="font-size:4.23334px;line-height:1.25;font-family:'Open Sans';-inkscape-font-specification:'Open Sans Bold';text-align:center;text-anchor:middle"
         d="m -6.8018253,74.949686 q 0,0.748276 -0.4072109,1.145152 -0.4051438,0.394808 -1.1678891,0.394808 h -0.8371595 v -3.022042 h 0.9260431 q 0.7048676,0 1.095542,0.390674 0.3906744,0.390675 0.3906744,1.091408 z m -0.3720709,0.0124 q 0,-0.59118 -0.2976567,-0.890903 -0.2955896,-0.299724 -0.8805677,-0.299724 h -0.510564 v 2.414326 h 0.4278816 q 0.6283863,0 0.9446466,-0.307992 0.3162602,-0.310059 0.3162602,-0.915707 z m 2.9496954,0.392741 q 0,0.553972 -0.2790532,0.866098 -0.2790532,0.310059 -0.7710135,0.310059 -0.3038579,0 -0.5395028,-0.142627 -0.2356449,-0.142627 -0.3638027,-0.409278 -0.1281577,-0.26665 -0.1281577,-0.624252 0,-0.553972 0.2769861,-0.861964 0.2769861,-0.310059 0.7689465,-0.310059 0.4754239,0 0.754477,0.31626 0.2811203,0.31626 0.2811203,0.855763 z m -1.7259955,0 q 0,0.434083 0.1736331,0.661459 0.173633,0.227377 0.5105639,0.227377 0.3369309,0 0.5105639,-0.22531 0.1757002,-0.227376 0.1757002,-0.663526 0,-0.432016 -0.1757002,-0.655258 -0.173633,-0.22531 -0.514698,-0.22531 -0.3369309,0 -0.5084969,0.221176 -0.171566,0.221175 -0.171566,0.659392 z m 3.2328824,1.176157 q -0.4919604,0 -0.7627453,-0.30179 -0.2687178,-0.303858 -0.2687178,-0.85783 0,-0.568442 0.2728519,-0.878501 0.2749191,-0.310059 0.7813489,-0.310059 0.1632978,0 0.3265955,0.03514 0.1632978,0.03514 0.2563155,0.08268 l -0.10542,0.291456 q -0.1136884,-0.04548 -0.2480473,-0.07441 -0.1343589,-0.03101 -0.237712,-0.03101 -0.6903981,0 -0.6903981,0.880567 0,0.417547 0.1674319,0.640789 0.1694989,0.223243 0.5002286,0.223243 0.2831873,0 0.580844,-0.121957 v 0.303858 q -0.2273767,0.117822 -0.5725758,0.117822 z m 1.4490092,-1.200962 q 0.088884,-0.12609 0.2707849,-0.330729 l 0.7317394,-0.775148 h 0.40721091 l -0.91777484,0.965317 0.98185371,1.300181 h -0.41547915 l -0.79995243,-1.070737 -0.2583825,0.223242 v 0.847495 H -1.6073026 V 73.2733 h 0.3389979 v 1.705325 q 0,0.113688 -0.016536,0.3514 z m 2.8401408,1.200962 q -0.5022957,0 -0.79375119,-0.305924 -0.28938846,-0.305925 -0.28938846,-0.849562 0,-0.547771 0.26871786,-0.870233 0.27078489,-0.322461 0.72553819,-0.322461 0.4258145,0 0.6738617,0.28112 0.2480473,0.279053 0.2480473,0.737941 v 0.217041 H 0.84423085 q 0.0103353,0.398943 0.20050485,0.605649 0.1922366,0.206706 0.5395028,0.206706 0.3658697,0 0.7234711,-0.152963 v 0.305925 q -0.1819013,0.07855 -0.3451991,0.111621 -0.1612307,0.03514 -0.3906744,0.03514 z m -0.093018,-2.060859 q -0.272852,0 -0.4361497,0.177767 -0.16123076,0.177768 -0.19016961,0.491961 H 2.0369247 q 0,-0.324529 -0.1446942,-0.496095 -0.1446942,-0.173633 -0.4134124,-0.173633 z m 2.5445524,-0.287321 q 0.1508954,0 0.2707849,0.02481 l -0.047542,0.318327 q -0.1405601,-0.03101 -0.2480473,-0.03101 -0.274919,0 -0.4712897,0.223242 -0.1943037,0.223243 -0.1943037,0.55604 v 1.215431 H 2.9898405 v -2.265498 h 0.2831873 l 0.039274,0.419613 h 0.016536 q 0.1260906,-0.221175 0.3038578,-0.341065 0.1777672,-0.119889 0.3906745,-0.119889 z"
         id="path4" />
    </g>
  </g>
</svg>
